<svg version="1.1" id="Layer_1" xmlns="http://www.w3.org/2000/svg" xmlns:xlink="http://www.w3.org/1999/xlink" x="0px" y="0px"
	 width="100%" viewBox="0 0 225 225" enable-background="new 0 0 225 225" xml:space="preserve">
<path fill="#8A63D2" opacity="1.000000" stroke="none" 
	d="
M99.000000,1.000000 
	C108.687561,1.000000 118.375122,1.000000 128.678421,1.350391 
	C130.239075,1.993614 131.166718,2.371760 132.131378,2.567041 
	C181.734222,12.608425 214.403503,45.230259 224.385513,94.638168 
	C224.624146,95.819290 225.448730,96.882034 226.000000,98.000000 
	C226.000000,108.354225 226.000000,118.708458 225.641098,129.646271 
	C224.909515,131.316284 224.399277,132.376190 224.183960,133.492935 
	C215.065231,180.789291 180.214020,215.427673 132.856827,224.303070 
	C131.512436,224.555008 130.283020,225.420547 129.000000,226.000000 
	C118.645775,226.000000 108.291542,226.000000 97.353729,225.641083 
	C95.684639,224.909668 94.623772,224.424728 93.510109,224.180817 
	C45.250927,213.610687 15.333303,184.208557 3.306393,136.405411 
	C2.597681,133.588501 1.771509,130.801117 1.000000,128.000000 
	C1.000000,117.979103 1.000000,107.958214 1.358916,97.353722 
	C2.117115,95.520546 2.616840,94.293358 2.901174,93.018150 
	C13.359056,46.115406 41.747936,16.388163 88.181053,3.926318 
	C91.789261,2.957936 95.393768,1.975763 99.000000,1.000000 
M172.947922,93.500000 
	C172.947922,79.237167 172.947922,64.974335 172.947922,50.522278 
	C164.957275,50.522278 157.612762,50.522278 150.412506,50.522278 
	C150.412506,93.151054 150.412506,135.339752 150.412506,178.210892 
	C158.045898,177.811951 165.226822,177.436646 172.947891,177.033127 
	C172.947891,149.007248 172.947891,121.753624 172.947922,93.500000 
M125.018280,145.500000 
	C125.018280,129.782898 125.018280,114.065796 125.018280,98.418091 
	C116.880272,98.418091 109.650902,98.418091 102.344818,98.418091 
	C102.344818,124.662735 102.344818,150.516708 102.344818,176.580780 
	C109.935776,176.580780 117.161942,176.580780 125.018288,176.580780 
	C125.018288,166.361832 125.018288,156.430923 125.018280,145.500000 
M70.371490,146.070633 
	C66.056618,146.073883 61.723408,145.859467 57.438667,146.220428 
	C56.239960,146.321426 54.242867,148.090546 54.211349,149.142395 
	C53.953022,157.764099 53.974621,166.399857 54.212345,175.023041 
	C54.239586,176.011139 56.076717,177.723984 57.142448,177.778610 
	C62.604515,178.058624 68.097092,178.064209 73.558701,177.778046 
	C74.735802,177.716385 76.788422,176.081345 76.812759,175.129501 
	C77.056786,165.586227 76.961121,156.034286 76.961121,146.070862 
	C74.592491,146.070862 72.961357,146.070862 70.371490,146.070633 
z"/>
<path fill="#FEFEFF" opacity="1.000000" stroke="none" 
	d="
M98.531342,1.000000 
	C95.393768,1.975763 91.789261,2.957936 88.181053,3.926318 
	C41.747936,16.388163 13.359056,46.115406 2.901174,93.018150 
	C2.616840,94.293358 2.117115,95.520546 1.358916,96.885063 
	C1.000000,65.072311 1.000000,33.144630 1.000000,1.000000 
	C33.353905,1.000000 65.708290,1.000000 98.531342,1.000000 
z"/>
<path fill="#FEFEFF" opacity="1.000000" stroke="none" 
	d="
M226.000000,97.531342 
	C225.448730,96.882034 224.624146,95.819290 224.385513,94.638168 
	C214.403503,45.230259 181.734222,12.608425 132.131378,2.567041 
	C131.166718,2.371760 130.239075,1.993614 129.147079,1.350391 
	C161.260254,1.000000 193.520523,1.000000 226.000000,1.000000 
	C226.000000,33.020561 226.000000,65.041618 226.000000,97.531342 
z"/>
<path fill="#FEFEFF" opacity="1.000000" stroke="none" 
	d="
M1.000000,128.468658 
	C1.771509,130.801117 2.597681,133.588501 3.306393,136.405411 
	C15.333303,184.208557 45.250927,213.610687 93.510109,224.180817 
	C94.623772,224.424728 95.684639,224.909668 96.885071,225.641083 
	C65.072319,226.000000 33.144638,226.000000 1.000000,226.000000 
	C1.000000,193.646103 1.000000,161.291702 1.000000,128.468658 
z"/>
<path fill="#FEFEFF" opacity="1.000000" stroke="none" 
	d="
M129.468658,226.000000 
	C130.283020,225.420547 131.512436,224.555008 132.856827,224.303070 
	C180.214020,215.427673 215.065231,180.789291 224.183960,133.492935 
	C224.399277,132.376190 224.909515,131.316284 225.641098,130.114929 
	C226.000000,161.927307 226.000000,193.854599 226.000000,226.000000 
	C193.979431,226.000000 161.958374,226.000000 129.468658,226.000000 
z"/>
<path fill="#FEFDFE" opacity="1.000000" stroke="none" 
	d="
M172.947906,94.000000 
	C172.947891,121.753624 172.947891,149.007248 172.947891,177.033127 
	C165.226822,177.436646 158.045898,177.811951 150.412506,178.210892 
	C150.412506,135.339752 150.412506,93.151054 150.412506,50.522278 
	C157.612762,50.522278 164.957275,50.522278 172.947922,50.522278 
	C172.947922,64.974335 172.947922,79.237167 172.947906,94.000000 
z"/>
<path fill="#FEFDFE" opacity="1.000000" stroke="none" 
	d="
M125.018280,146.000000 
	C125.018288,156.430923 125.018288,166.361832 125.018288,176.580780 
	C117.161942,176.580780 109.935776,176.580780 102.344818,176.580780 
	C102.344818,150.516708 102.344818,124.662735 102.344818,98.418091 
	C109.650902,98.418091 116.880272,98.418091 125.018280,98.418091 
	C125.018280,114.065796 125.018280,129.782898 125.018280,146.000000 
z"/>
<path fill="#FCFCFE" opacity="1.000000" stroke="none" 
	d="
M70.850861,146.070740 
	C72.961357,146.070862 74.592491,146.070862 76.961121,146.070862 
	C76.961121,156.034286 77.056786,165.586227 76.812759,175.129501 
	C76.788422,176.081345 74.735802,177.716385 73.558701,177.778046 
	C68.097092,178.064209 62.604515,178.058624 57.142448,177.778610 
	C56.076717,177.723984 54.239586,176.011139 54.212345,175.023041 
	C53.974621,166.399857 53.953022,157.764099 54.211349,149.142395 
	C54.242867,148.090546 56.239960,146.321426 57.438667,146.220428 
	C61.723408,145.859467 66.056618,146.073883 70.850861,146.070740 
z"/>
</svg>